/* XPM */
static char * suspend_16x16_xpm[] = {
"16 16 3 1",
" 	c None",
".	c #FFFFFF",
"+	c #ECECEC",
"      .         ",
"    ++          ",
"  ++++          ",
"  ++++          ",
" ++++           ",
"+++++           ",
"+++++           ",
"++++++          ",
"++++++          ",
"+++++++         ",
" ++++++         ",
" ++++++++       ",
"  +++++++++     ",
"  +++++++++++++ ",
"    ++++++++++  ",
"      ++++++    "};
