/* XPM */
static char * frameAB_xpm[] = {
"1 6 2 1",
" 	c None",
".	c #AB7EA7",
".",
".",
" ",
" ",
" ",
" "};
