/* XPM */
static char * maximizeI_xpm[] = {
"24 48 4 1",
" 	c #24273A",
".	c #626880",
"+	c #444252",
"@	c #8AB070",
"                        ",
"                        ",
"                        ",
"                        ",
"                        ",
"  ................      ",
"  ................      ",
"  ................      ",
"  ................      ",
"  ................      ",
"  ................      ",
"                        ",
"                        ",
"                        ",
"                        ",
"                        ",
"                        ",
"                        ",
"                        ",
"                        ",
"                        ",
"                        ",
"                        ",
"++++++++++++++++++++++++",
"++++++++++++++++++++++++",
"++++++++++++++++++++++++",
"++++++++++++++++++++++++",
"++++++++++++++++++++++++",
"++++++++++++++++++++++++",
"++++++++++++++++++++++++",
"++@@@@@@@@@@@@@@@@++++++",
"++@@@@@@@@@@@@@@@@++++++",
"++@@@@@@@@@@@@@@@@++++++",
"++@@@@@@@@@@@@@@@@++++++",
"++@@@@@@@@@@@@@@@@++++++",
"++@@@@@@@@@@@@@@@@++++++",
"++++++++++++++++++++++++",
"++++++++++++++++++++++++",
"++++++++++++++++++++++++",
"++++++++++++++++++++++++",
"++++++++++++++++++++++++",
"++++++++++++++++++++++++",
"++++++++++++++++++++++++",
"++++++++++++++++++++++++",
"++++++++++++++++++++++++",
"++++++++++++++++++++++++",
"++++++++++++++++++++++++",
"++++++++++++++++++++++++"};
