/* XPM */
static char * minimizeI_xpm[] = {
"24 48 4 1",
" 	c #24273A",
".	c #626880",
"+	c #444252",
"@	c #CE8A68",
"                        ",
"                        ",
"                        ",
"                        ",
"                        ",
"   ................     ",
"   ................     ",
"   ................     ",
"   ................     ",
"   ................     ",
"   ................     ",
"                        ",
"                        ",
"                        ",
"                        ",
"                        ",
"                        ",
"                        ",
"                        ",
"                        ",
"                        ",
"                        ",
"                        ",
"++++++++++++++++++++++++",
"++++++++++++++++++++++++",
"++++++++++++++++++++++++",
"++++++++++++++++++++++++",
"++++++++++++++++++++++++",
"++++++++++++++++++++++++",
"++++++++++++++++++++++++",
"+++@@@@@@@@@@@@@@@@+++++",
"+++@@@@@@@@@@@@@@@@+++++",
"+++@@@@@@@@@@@@@@@@+++++",
"+++@@@@@@@@@@@@@@@@+++++",
"+++@@@@@@@@@@@@@@@@+++++",
"+++@@@@@@@@@@@@@@@@+++++",
"++++++++++++++++++++++++",
"++++++++++++++++++++++++",
"++++++++++++++++++++++++",
"++++++++++++++++++++++++",
"++++++++++++++++++++++++",
"++++++++++++++++++++++++",
"++++++++++++++++++++++++",
"++++++++++++++++++++++++",
"++++++++++++++++++++++++",
"++++++++++++++++++++++++",
"++++++++++++++++++++++++",
"++++++++++++++++++++++++"};
