/* XPM */
static char * maximizeA_xpm[] = {
"24 48 2 1",
" 	c #24273A",
".	c #A6D189",
"                        ",
"                        ",
"                        ",
"                        ",
"                        ",
"  ................      ",
"  ................      ",
"  ................      ",
"  ................      ",
"  ................      ",
"  ................      ",
"                        ",
"                        ",
"                        ",
"                        ",
"                        ",
"                        ",
"                        ",
"                        ",
"                        ",
"                        ",
"                        ",
"                        ",
"                        ",
"                        ",
"                        ",
"                        ",
"                        ",
"                        ",
"  ................      ",
"  ................      ",
"  ................      ",
"  ................      ",
"  ................      ",
"  ................      ",
"                        ",
"                        ",
"                        ",
"                        ",
"                        ",
"                        ",
"                        ",
"                        ",
"                        ",
"                        ",
"                        ",
"                        ",
"                        "};
