/* XPM */
static char * minimizeA_xpm[] = {
"24 48 2 1",
" 	c #24273A",
".	c #EF9F76",
"                        ",
"                        ",
"                        ",
"                        ",
"                        ",
"   ................     ",
"   ................     ",
"   ................     ",
"   ................     ",
"   ................     ",
"   ................     ",
"                        ",
"                        ",
"                        ",
"                        ",
"                        ",
"                        ",
"                        ",
"                        ",
"                        ",
"                        ",
"                        ",
"                        ",
"                        ",
"                        ",
"                        ",
"                        ",
"                        ",
"                        ",
"   ................     ",
"   ................     ",
"   ................     ",
"   ................     ",
"   ................     ",
"   ................     ",
"                        ",
"                        ",
"                        ",
"                        ",
"                        ",
"                        ",
"                        ",
"                        ",
"                        ",
"                        ",
"                        ",
"                        ",
"                        "};
