/* XPM */
static char * maximizeA_xpm[] = {
"18 38 4 1",
" 	c #BBBBBB",
".	c #5F5FA6",
"+	c #4C4C4C",
"@	c #000000",
"                 .",
"                ..",
"                ..",
"                ..",
"                ..",
"                ..",
"                ..",
"        +       ..",
"       +++      ..",
"      +++++     ..",
"     +++++++    ..",
"                ..",
"                ..",
"                ..",
"                ..",
"                ..",
" .................",
"..................",
"@@@@@@@@@@@@@@@@@@",
"                 .",
"                ..",
"                ..",
"                ..",
"                ..",
"                ..",
"                ..",
"        +       ..",
"       +++      ..",
"      +++++     ..",
"     +++++++    ..",
"                ..",
"                ..",
"                ..",
"                ..",
"                ..",
" .................",
"..................",
"++++++++++++++++++"};
