/* XPM */
static char * menuButtonI_xpm[] = {
"19 38 3 1",
" 	c #BBBBBB",
".	c #000000",
"+	c #5F5FA6",
"                  .",
"                  .",
"                  .",
"                  .",
"                  .",
"                  .",
"                  .",
"  .............   .",
"  .           .+  .",
"  .............+  .",
"   +++++++++++++  .",
"                  .",
"                  .",
"                  .",
"                  .",
"                  .",
"                  .",
"                  .",
"...................",
"++++++++++++++++++.",
"++++++++++++++++++.",
"++++++++++++++++++.",
"++++++++++++++++++.",
"++++++++++++++++++.",
"++++++++++++++++++.",
"++++++++++++++++++.",
"++             +++.",
"++ ........... .++.",
"++             .++.",
"+++.............++.",
"++++++++++++++++++.",
"++++++++++++++++++.",
"++++++++++++++++++.",
"++++++++++++++++++.",
"++++++++++++++++++.",
"++++++++++++++++++.",
"++++++++++++++++++.",
"..................."};
