/* XPM */
static char * folder_32x32_xpm[] = {
"32 32 3 1",
" 	c None",
".	c #424242",
"+	c #F3F3F3",
"                                ",
"                                ",
"                                ",
"                                ",
"     ................           ",
"    .++++++++++++++++.          ",
"   .++++++++++++++++++.         ",
"  .++++++++++++++++++++.        ",
" .++++++++++++++++++++++.       ",
" .............................. ",
" .++++++++++++++++++++++++++++. ",
" .++++++++++++++++++++++++++++. ",
" .++++++++++++++++++++++++++++. ",
" .++++++++++++++++++++++++++++. ",
" .++++++++++++++++++++++++++++. ",
" .++++++++++++++++++++++++++++. ",
" .++++++++++++++++++++++++++++. ",
" .++++++++++++++++++++++++++++. ",
" .++++++++++++++++++++++++++++. ",
" .++++++++++++++++++++++++++++. ",
" .++++++++++++++++++++++++++++. ",
" .++++++++++++++++++++++++++++. ",
" .++++++++++++++++++++++++++++. ",
" .++++++++++++++++++++++++++++. ",
" .++++++++++++++++++++++++++++. ",
" .++++++++++++++++++++++++++++. ",
" .++++++++++++++++++++++++++++. ",
" .++++++++++++++++++++++++++++. ",
" .............................. ",
"                                ",
"                                ",
"                                "};
