/* XPM */
static char * xterm_16x16_xpm[] = {
"16 16 3 1",
" 	c None",
".	c #424242",
"+	c #F3F3F3",
"                ",
"                ",
"  ............  ",
" .++++++++++++. ",
" .+.++++++++++. ",
" .++.+++++++++. ",
" .++.+++++++++. ",
" .+.++...+++++. ",
" .++++++++++++. ",
" .++++++++++++. ",
" .++++++++++++. ",
"  ............  ",
"                ",
"                ",
"                ",
"                "};
