/* XPM */
static char * frameATR_xpm[] = {
"23 23 2 1",
" 	c None",
".	c #000000",
"                       ",
"                       ",
"                       ",
"....................   ",
"                   .   ",
"                   .   ",
"                   .   ",
"                   .   ",
"                   .   ",
"                   .   ",
"                   .   ",
"                   .   ",
"                   .   ",
"                   .   ",
"                   .   ",
"                   .   ",
"                   .   ",
"                   .   ",
"                   .   ",
"                   .   ",
"                   .   ",
"                   .   ",
"                   .   "};
