/* XPM */
static char * frameIB_xpm[] = {
"1 4 2 1",
" 	c None",
".	c #000000",
".",
" ",
" ",
" "};
