/* XPM */
static char * file_16x16_xpm[] = {
"16 16 5 1",
" 	c None",
".	c #424242",
"+	c #F9F9F9",
"@	c #C0C0C0",
"#	c #000000",
"                ",
"                ",
"  ........      ",
"  .++++++..     ",
"  .++++++.@#    ",
"  .++++++.@@.   ",
"  .++++++.....  ",
"  .++++++++++.  ",
"  .++++++++++.  ",
"  .++++++++++.  ",
"  .++++++++++.  ",
"  .++++++++++.  ",
"  .++++++++++.  ",
"  .++++++++++.  ",
"  ............  ",
"                "};
