/* XPM */
static char * file_32x32_xpm[] = {
"32 32 5 1",
" 	c None",
".	c #424242",
"+	c #F9F9F9",
"@	c #C0C0C0",
"#	c #000000",
"                                ",
"                                ",
"                                ",
"                                ",
"    ................            ",
"    .++++++++++++++..           ",
"    .++++++++++++++.@#          ",
"    .++++++++++++++.@@#         ",
"    .++++++++++++++.@@@#        ",
"    .++++++++++++++.@@@@#       ",
"    .++++++++++++++.@@@@@#      ",
"    .++++++++++++++.@@@@@@.     ",
"    .++++++++++++++.........    ",
"    .++++++++++++++++++++++.    ",
"    .++++++++++++++++++++++.    ",
"    .++++++++++++++++++++++.    ",
"    .++++++++++++++++++++++.    ",
"    .++++++++++++++++++++++.    ",
"    .++++++++++++++++++++++.    ",
"    .++++++++++++++++++++++.    ",
"    .++++++++++++++++++++++.    ",
"    .++++++++++++++++++++++.    ",
"    .++++++++++++++++++++++.    ",
"    .++++++++++++++++++++++.    ",
"    .++++++++++++++++++++++.    ",
"    .++++++++++++++++++++++.    ",
"    .++++++++++++++++++++++.    ",
"    .++++++++++++++++++++++.    ",
"    .++++++++++++++++++++++.    ",
"    ........................    ",
"                                ",
"                                "};
