/* XPM */
static char * buttonI_xpm[] = {
"60 19 4 1",
" 	c #3D4455",
".	c #24262B",
"+	c #2F343F",
"@	c #333A48",
"                                                           .",
" +++++++++++++++++++++++++++++++++++++++++++++++++++++++++@.",
" +++++++++++++++++++++++++++++++++++++++++++++++++++++++++@.",
" +++++++++++++++++++++++++++++++++++++++++++++++++++++++++@.",
" +++++++++++++++++++++++++++++++++++++++++++++++++++++++++@.",
" +++++++++++++++++++++++++++++++++++++++++++++++++++++++++@.",
" +++++++++++++++++++++++++++++++++++++++++++++++++++++++++@.",
" +++++++++++++++++++++++++++++++++++++++++++++++++++++++++@.",
" +++++++++++++++++++++++++++++++++++++++++++++++++++++++++@.",
" +++++++++++++++++++++++++++++++++++++++++++++++++++++++++@.",
" +++++++++++++++++++++++++++++++++++++++++++++++++++++++++@.",
" +++++++++++++++++++++++++++++++++++++++++++++++++++++++++@.",
" +++++++++++++++++++++++++++++++++++++++++++++++++++++++++@.",
" +++++++++++++++++++++++++++++++++++++++++++++++++++++++++@.",
" +++++++++++++++++++++++++++++++++++++++++++++++++++++++++@.",
" +++++++++++++++++++++++++++++++++++++++++++++++++++++++++@.",
" +++++++++++++++++++++++++++++++++++++++++++++++++++++++++@.",
" @@@@@@@@@@@@@@@@@@@@@@@@@@@@@@@@@@@@@@@@@@@@@@@@@@@@@@@@@@.",
"............................................................"};
