/* XPM */
static char * menuButtonI_xpm[] = {
"23 46 3 1",
" 	c #282B30",
".	c #C8C8EE",
"+	c #A7A7CC",
"                       ",
"                       ",
"                       ",
"                       ",
"                       ",
"                       ",
"                       ",
"                       ",
"                       ",
"                       ",
"           ..          ",
"          ...          ",
"          ..           ",
"                       ",
"                       ",
"                       ",
"                       ",
"                       ",
"                       ",
"                       ",
"                       ",
"                       ",
"                       ",
"+++++++++++++++++++++++",
"+++++++++++++++++++++++",
"+++++++++++++++++++++++",
"+++++++++++++++++++++++",
"+++++++++++++++++++++++",
"+++++++++++++++++++++++",
"+++++++++++++++++++++++",
"+++++++++++++++++++++++",
"+++++++++++++++++++++++",
"+++++++++++++++++++++++",
"+++++++++++  ++++++++++",
"++++++++++   ++++++++++",
"++++++++++  +++++++++++",
"+++++++++++++++++++++++",
"+++++++++++++++++++++++",
"+++++++++++++++++++++++",
"+++++++++++++++++++++++",
"+++++++++++++++++++++++",
"+++++++++++++++++++++++",
"+++++++++++++++++++++++",
"+++++++++++++++++++++++",
"+++++++++++++++++++++++",
"+++++++++++++++++++++++"};
