/* XPM */
static char * closeI_xpm[] = {
"24 48 4 1",
" 	c #24273A",
".	c #626880",
"+	c #444252",
"@	c #C66E70",
"                        ",
"                        ",
"                        ",
"                        ",
"                        ",
" ................       ",
" ................       ",
" ................       ",
" ................       ",
" ................       ",
" ................       ",
"                        ",
"                        ",
"                        ",
"                        ",
"                        ",
"                        ",
"                        ",
"                        ",
"                        ",
"                        ",
"                        ",
"                        ",
"++++++++++++++++++++++++",
"++++++++++++++++++++++++",
"++++++++++++++++++++++++",
"++++++++++++++++++++++++",
"++++++++++++++++++++++++",
"++++++++++++++++++++++++",
"++++++++++++++++++++++++",
"+@@@@@@@@@@@@@@@@+++++++",
"+@@@@@@@@@@@@@@@@+++++++",
"+@@@@@@@@@@@@@@@@+++++++",
"+@@@@@@@@@@@@@@@@+++++++",
"+@@@@@@@@@@@@@@@@+++++++",
"+@@@@@@@@@@@@@@@@+++++++",
"++++++++++++++++++++++++",
"++++++++++++++++++++++++",
"++++++++++++++++++++++++",
"++++++++++++++++++++++++",
"++++++++++++++++++++++++",
"++++++++++++++++++++++++",
"++++++++++++++++++++++++",
"++++++++++++++++++++++++",
"++++++++++++++++++++++++",
"++++++++++++++++++++++++",
"++++++++++++++++++++++++",
"++++++++++++++++++++++++"};
