/* XPM */
static char * closeA_xpm[] = {
"24 48 2 1",
" 	c #24273A",
".	c #E78284",
"                        ",
"                        ",
"                        ",
"                        ",
"                        ",
" ................       ",
" ................       ",
" ................       ",
" ................       ",
" ................       ",
" ................       ",
"                        ",
"                        ",
"                        ",
"                        ",
"                        ",
"                        ",
"                        ",
"                        ",
"                        ",
"                        ",
"                        ",
"                        ",
"                        ",
"                        ",
"                        ",
"                        ",
"                        ",
"                        ",
" ................       ",
" ................       ",
" ................       ",
" ................       ",
" ................       ",
" ................       ",
"                        ",
"                        ",
"                        ",
"                        ",
"                        ",
"                        ",
"                        ",
"                        ",
"                        ",
"                        ",
"                        ",
"                        ",
"                        "};
