/* XPM */
static char * frameITL_xpm[] = {
"16 16 2 1",
" 	c None",
".	c #AC6B89",
"                ",
"                ",
"                ",
"                ",
"      ..........",
"     ...........",
"    ............",
"    ............",
"    ............",
"    ............",
"    ............",
"    ............",
"    ............",
"    ............",
"    ............",
"    ............"};
