/* XPM */
static char * xload_32x32_xpm[] = {
"32 32 2 1",
" 	c None",
".	c #E9B8D4",
"                      ....      ",
"                    ......      ",
"                   .......      ",
"................................",
"                  ........      ",
"                 .........      ",
"................................",
"               ...........      ",
"              ............      ",
"................................",
"             .............      ",
"            ..............      ",
"................................",
"           ...............      ",
"           ...............      ",
"................................",
"          ................      ",
"          ................      ",
"................................",
"         .................      ",
"         .................      ",
"................................",
"        ..................      ",
"        ..................      ",
"................................",
"       ...................      ",
"      ....................      ",
"................................",
"   .......................      ",
"..........................      ",
"................................",
"..........................      "};
