/* XPM */
static char * menuButtonI_xpm[] = {
"23 46 24 1",
" 	c #2E2B28",
".	c #2D2A27",
"+	c #2C2926",
"@	c #2B2926",
"#	c #2B2825",
"$	c #2A2825",
"%	c #292724",
"&	c #282624",
"*	c #282623",
"=	c #272523",
"-	c #262522",
";	c #EBDBB2",
">	c #262422",
",	c #252321",
"'	c #242320",
")	c #232220",
"!	c #23221F",
"~	c #22211F",
"{	c #21201E",
"]	c #20201E",
"^	c #201F1D",
"/	c #1F1F1D",
"(	c #1E1E1C",
"_	c #A89984",
"                       ",
".......................",
"+++++++++++++++++++++++",
"@@@@@@@@@@@@@@@@@@@@@@@",
"#######################",
"$$$$$$$$$$$$$$$$$$$$$$$",
"%%%%%%%%%%%%%%%%%%%%%%%",
"&&&&&&&&&&&&&&&&&&&&&&&",
"***********************",
"=======================",
"-----------;;----------",
">>>>>>>>>>;;;>>>>>>>>>>",
",,,,,,,,,,;;,,,,,,,,,,,",
"'''''''''''''''''''''''",
")))))))))))))))))))))))",
"!!!!!!!!!!!!!!!!!!!!!!!",
"~~~~~~~~~~~~~~~~~~~~~~~",
"{{{{{{{{{{{{{{{{{{{{{{{",
"]]]]]]]]]]]]]]]]]]]]]]]",
"^^^^^^^^^^^^^^^^^^^^^^^",
"///////////////////////",
"(((((((((((((((((((((((",
"(((((((((((((((((((((((",
"_______________________",
"_______________________",
"_______________________",
"_______________________",
"_______________________",
"_______________________",
"_______________________",
"_______________________",
"_______________________",
"_______________________",
"___________((__________",
"__________(((__________",
"__________((___________",
"_______________________",
"_______________________",
"_______________________",
"_______________________",
"_______________________",
"_______________________",
"_______________________",
"_______________________",
"_______________________",
"_______________________"};
