/* XPM */
static char * minimizeA_xpm[] = {
"23 46 4 1",
" 	c #EBDBB2",
".	c #1E1E1C",
"+	c #282B30",
"@	c #B8B8DD",
"                       ",
"                       ",
"                       ",
"                       ",
"                       ",
"                       ",
"                       ",
"                       ",
"                       ",
"                       ",
"          ...          ",
"          ...          ",
"          ...          ",
"                       ",
"                       ",
"                       ",
"                       ",
"                       ",
"                       ",
"                       ",
"                       ",
"                       ",
"                       ",
"+@@+@+++@+++@+@+@+@+@@+",
"++@+@+@+@@+@@+@+@+@++@+",
"+@++@+@+@@+@@+++@+@+@++",
"+@++@+@+@@+@@+@+@+@+@++",
"+@@+@+++@@+@@+@+@+@+@@+",
"@@@@@@@@@@@@@@@@@@@@@@@",
"@@@@@@@@@@@@@@@@@@@@@@@",
"+@+@+++@++@@+++@+@@@@@@",
"+@+@+@@@+@+@+@@@+@@@@@@",
"+++@++@@++@@++@@+@@@@@@",
"+@+@+@@@+@+@+@@@@@@@@@@",
"+@+@+++@+@+@+++@+@@@@@@",
"@@@@@@@@@@@@@@@@@@@@@@@",
"@@@@@@@@@@@@@@@@@@@@@@@",
"@@@@@@@@@@@@@@@@@@@@@@@",
"@@@@@@@@@@@@@@@@@@@@@@@",
"@@@@@@@@@@@@@@@@@@@@@@@",
"@@@@@@@@@@@@@@@@@@@@@@@",
"@@@@@@@@@@@@@@@@@@@@@@@",
"@@@@@@@@@@@@@@@@@@@@@@@",
"@@@@@@@@@@@@@@@@@@@@@@@",
"@@@@@@@@@@@@@@@@@@@@@@@",
"@@@@@@@@@@@@@@@@@@@@@@@"};
