/* XPM */
static char * closeA_xpm[] = {
"24 48 2 1",
" 	c #272C36",
".	c #8B91A5",
"                        ",
"                        ",
"                        ",
"                        ",
"                        ",
" ................       ",
" ................       ",
" ................       ",
" ................       ",
" ................       ",
" ................       ",
"                        ",
"                        ",
"                        ",
"                        ",
"                        ",
"                        ",
"                        ",
"                        ",
"                        ",
"                        ",
"                        ",
"                        ",
"                        ",
"                        ",
"                        ",
"                        ",
"                        ",
"                        ",
" ................       ",
" ................       ",
" ................       ",
" ................       ",
" ................       ",
" ................       ",
"                        ",
"                        ",
"                        ",
"                        ",
"                        ",
"                        ",
"                        ",
"                        ",
"                        ",
"                        ",
"                        ",
"                        ",
"                        "};
