/* XPM */
static char * frameAR_xpm[] = {
"18 1 2 1",
" 	c None",
".	c #272C36",
"............      "};
