/* XPM */
static char * titleIM_xpm[] = {
"18 20 2 1",
" 	c #384050",
".	c #282B30",
"         .. . ....",
"     .  .   ......",
"          . ......",
"             .  ..",
"        ...  .....",
"        .. .... ..",
"         . .......",
"       . . .. ....",
"          .. .....",
"       . .  .. ...",
"              ....",
"           .. ....",
"         . .   ...",
"         .   ..  .",
"           ..  .  ",
"            .. ...",
"            . . ..",
"           . .....",
"            ......",
"              ...."};
