/* XPM */
static char * minimizeI_xpm[] = {
"24 48 4 1",
" 	c #272C36",
".	c #91AB79",
"+	c #282B30",
"@	c #748D5E",
"                        ",
"                        ",
"                        ",
"                        ",
"                        ",
"   ................     ",
"   ................     ",
"   ................     ",
"   ................     ",
"   ................     ",
"   ................     ",
"                        ",
"                        ",
"                        ",
"                        ",
"                        ",
"                        ",
"                        ",
"                        ",
"                        ",
"                        ",
"                        ",
"                        ",
"++++++++++++++++++++++++",
"++++++++++++++++++++++++",
"++++++++++++++++++++++++",
"++++++++++++++++++++++++",
"++++++++++++++++++++++++",
"++++++++++++++++++++++++",
"++++++++++++++++++++++++",
"+++@@@@@@@@@@@@@@@@+++++",
"+++@@@@@@@@@@@@@@@@+++++",
"+++@@@@@@@@@@@@@@@@+++++",
"+++@@@@@@@@@@@@@@@@+++++",
"+++@@@@@@@@@@@@@@@@+++++",
"+++@@@@@@@@@@@@@@@@+++++",
"++++++++++++++++++++++++",
"++++++++++++++++++++++++",
"++++++++++++++++++++++++",
"++++++++++++++++++++++++",
"++++++++++++++++++++++++",
"++++++++++++++++++++++++",
"++++++++++++++++++++++++",
"++++++++++++++++++++++++",
"++++++++++++++++++++++++",
"++++++++++++++++++++++++",
"++++++++++++++++++++++++",
"++++++++++++++++++++++++"};
