/* XPM */
static char * start_xpm[] = {
"49 19 209 2",
"  	c #D4D0C8",
". 	c #D6D1C7",
"+ 	c #EDB076",
"@ 	c #F4A761",
"# 	c #FDAC61",
"$ 	c #F7853D",
"% 	c #D49979",
"& 	c #D1CCC3",
"* 	c #D6D0C7",
"= 	c #EAB77F",
"- 	c #FC9F45",
"; 	c #FE9231",
"> 	c #FDA045",
", 	c #FFA858",
"' 	c #FA6B16",
") 	c #D0410A",
"! 	c #BDABA1",
"~ 	c #ADBE91",
"{ 	c #BCCA95",
"] 	c #C7CDAE",
"^ 	c #C8D2A6",
"/ 	c #BBD582",
"( 	c #CCC8C0",
"_ 	c #D6D0C6",
": 	c #F0AF62",
"< 	c #FF8620",
"[ 	c #FF8721",
"} 	c #FFAB57",
"| 	c #FF9440",
"1 	c #F0590C",
"2 	c #B03E18",
"3 	c #55633D",
"4 	c #74A633",
"5 	c #91C633",
"6 	c #A5D24C",
"7 	c #ACE343",
"8 	c #91CB25",
"9 	c #B8B6AE",
"0 	c #DACDBD",
"a 	c #F7A743",
"b 	c #FC952C",
"c 	c #FE8E23",
"d 	c #FFB561",
"e 	c #FF8229",
"f 	c #E24C07",
"g 	c #98492C",
"h 	c #456B36",
"i 	c #7EA921",
"j 	c #81C20A",
"k 	c #96E50D",
"l 	c #A4FB0B",
"m 	c #80BD0F",
"n 	c #B7B4AC",
"o 	c #DAC7AD",
"p 	c #F88712",
"q 	c #F38719",
"r 	c #E48425",
"s 	c #E79242",
"t 	c #F35809",
"u 	c #D03605",
"v 	c #4D772B",
"w 	c #85B71F",
"x 	c #85CC0B",
"y 	c #96E50B",
"z 	c #9DF307",
"A 	c #84A345",
"B 	c #A7A49F",
"C 	c #000000",
"D 	c #C1B98D",
"E 	c #A88567",
"F 	c #9F735E",
"G 	c #646B78",
"H 	c #5B5C66",
"I 	c #743A24",
"J 	c #89230A",
"K 	c #3A6418",
"L 	c #6C9322",
"M 	c #8AC11B",
"N 	c #8AD30B",
"O 	c #9DEE0B",
"P 	c #97EC04",
"Q 	c #808C62",
"R 	c #A5A19D",
"S 	c #A5AFC7",
"T 	c #4A7EE3",
"U 	c #4B7DF2",
"V 	c #86A8F8",
"W 	c #7194F3",
"X 	c #3558DA",
"Y 	c #39536B",
"Z 	c #355A29",
"` 	c #80AA29",
" .	c #83C80E",
"..	c #8EE008",
"+.	c #9AF707",
"@.	c #87D011",
"#.	c #848578",
"$.	c #ADA9A4",
"%.	c #D1CECC",
"&.	c #7F93EB",
"*.	c #5079FF",
"=.	c #7191FF",
"-.	c #AAC0FF",
";.	c #7A95FF",
">.	c #394DF3",
",.	c #4155A0",
"'.	c #76893F",
").	c #889A56",
"!.	c #87A449",
"~.	c #94A946",
"{.	c #959957",
"].	c #86867E",
"^.	c #B8B5AE",
"/.	c #CCCACD",
"(.	c #6482F5",
"_.	c #567DFF",
":.	c #829FFF",
"<.	c #A6BCFF",
"[.	c #627FFD",
"}.	c #3342E2",
"|.	c #445A4D",
"1.	c #B69001",
"2.	c #DFB51C",
"3.	c #D9BC32",
"4.	c #DDC531",
"5.	c #FED814",
"6.	c #C0A84E",
"7.	c #A7A4A1",
"8.	c #C4C0B9",
"9.	c #BDBFD2",
"0.	c #6781F1",
"a.	c #5D83FF",
"b.	c #9FB9FF",
"c.	c #99B4FF",
"d.	c #4D67FC",
"e.	c #3945BC",
"f.	c #5E6A2E",
"g.	c #BC9707",
"h.	c #E0B50A",
"i.	c #FFCF08",
"j.	c #FFDC07",
"k.	c #FBD613",
"l.	c #A19773",
"m.	c #B3B1AC",
"n.	c #CAC6BF",
"o.	c #A2ABDB",
"p.	c #5F7AEF",
"q.	c #627EF2",
"r.	c #8697ED",
"s.	c #7188F9",
"t.	c #4054FA",
"u.	c #314689",
"v.	c #92830D",
"w.	c #C9A20B",
"x.	c #EABC0B",
"y.	c #FED10B",
"z.	c #FFD90A",
"A.	c #F6CF17",
"B.	c #999689",
"C.	c #B5B1AD",
"D.	c #CDC9C2",
"E.	c #7B8E80",
"F.	c #677166",
"G.	c #6E7B6D",
"H.	c #566754",
"I.	c #4B5C76",
"J.	c #3147BE",
"K.	c #445A5C",
"L.	c #AD8E05",
"M.	c #D8AF09",
"N.	c #F6C60B",
"O.	c #FFDD09",
"P.	c #E4BF1E",
"Q.	c #989693",
"R.	c #BBB8B2",
"S.	c #D1CDC5",
"T.	c #C9C7BE",
"U.	c #B7B9AE",
"V.	c #ADB2A6",
"W.	c #A7ABA2",
"X.	c #989B8F",
"Y.	c #8F9585",
"Z.	c #577845",
"`.	c #949633",
" +	c #CFAB1B",
".+	c #F8C90A",
"++	c #F1CE12",
"@+	c #F0CC14",
"#+	c #A8984E",
"$+	c #A09E9A",
"%+	c #C2BFB8",
"&+	c #D3CFC7",
"*+	c #BEBEB5",
"=+	c #ACB5A4",
"-+	c #A8AC9F",
";+	c #94907D",
">+	c #98906D",
",+	c #8C8567",
"'+	c #86837C",
")+	c #BAB6B0",
"!+	c #CBC7C0",
"~+	c #D1CDC6",
"{+	c #C8C5BD",
"]+	c #B6B3AE",
"^+	c #B2AFAB",
"/+	c #A8A6A2",
"(+	c #ADAAA5",
"_+	c #BEBBB5",
":+	c #D0CCC4",
"                                                                                                  ",
"                                                                                                  ",
"      . . + @ # $ % &                                                                             ",
"    * = - ; > , ' ) ! ~ { ] ^ / (                                                                 ",
"    _ : < [ } | 1 2 3 4 5 6 7 8 9                                                                 ",
"    0 a b c d e f g h i j k l m n                                                                 ",
"    o p q r s t u g v w x y z A B         C C C C C   C C                               C C       ",
"    D E F G H I J K L M N O P Q R       C C           C C                               C C       ",
"    S T U V W X Y Z `  ...+.@.#.$.      C C           C C C C     C C C C     C C   C   C C C C   ",
"  %.&.*.=.-.;.>.,.'.'.).!.~.{.].^.      C C C C C     C C               C C   C C C C   C C       ",
"  /.(._.:.<.[.}.|.1.2.3.4.5.6.7.8.        C C C C C   C C         C C C C C   C C       C C       ",
"  9.0.a.b.c.d.e.f.g.h.i.j.k.l.m.n.              C C   C C       C C     C C   C C       C C       ",
"  o.p.q.r.s.t.u.v.w.x.y.z.A.B.C.D.              C C   C C       C C     C C   C C       C C       ",
"  E.F.G.H.I.J.K.L.M.N.z.O.P.Q.R.S.      C C C C C       C C C     C C C C C   C C         C C C   ",
"  T.U.V.W.X.Y.Z.`. +.+++@+#+$+%+&+                                                                ",
"            *+=+-+;+>+,+'+Q.)+!+                                                                  ",
"            ~+~+{+]+^+/+(+_+:+S.                                                                  ",
"                                                                                                  ",
"                                                                                                  "};
