/* XPM */
static char * start_beastie_xpm[] = {
"49 19 172 2",
"  	c #D4D0C8",
". 	c #CAC1BA",
"+ 	c #968987",
"@ 	c #D1CCC4",
"# 	c #CAC4BD",
"$ 	c #D2CDC6",
"% 	c #CEBDB7",
"& 	c #93444D",
"* 	c #B2ABA6",
"= 	c #BEAEA9",
"- 	c #B5AEA9",
"; 	c #CDC8C1",
"> 	c #C3B9B3",
", 	c #967977",
"' 	c #CD8480",
") 	c #922432",
"! 	c #A03944",
"~ 	c #AC2732",
"{ 	c #622236",
"] 	c #57373F",
"^ 	c #B6B0AA",
"/ 	c #C0B2AC",
"( 	c #6E1A25",
"_ 	c #B8B3AD",
": 	c #B18B88",
"< 	c #D9C4C5",
"[ 	c #C29296",
"} 	c #D1BAC0",
"| 	c #9D2836",
"1 	c #7F2333",
"2 	c #8E212D",
"3 	c #A31F26",
"4 	c #401927",
"5 	c #B4AFA9",
"6 	c #AE9897",
"7 	c #B9A4A8",
"8 	c #C7B3B5",
"9 	c #E5D3DB",
"0 	c #B03144",
"a 	c #80202C",
"b 	c #5A1E2C",
"c 	c #391929",
"d 	c #7C7472",
"e 	c #D3CFC7",
"f 	c #CEC3BC",
"g 	c #A04346",
"h 	c #72232F",
"i 	c #604D55",
"j 	c #E0CFD8",
"k 	c #BD2632",
"l 	c #7F1D28",
"m 	c #33192A",
"n 	c #97918D",
"o 	c #D3CEC6",
"p 	c #B8ADAF",
"q 	c #C99A96",
"r 	c #C52328",
"s 	c #AF2735",
"t 	c #925D64",
"u 	c #B8747F",
"v 	c #B92732",
"w 	c #73202D",
"x 	c #341B30",
"y 	c #BCB6B0",
"z 	c #000000",
"A 	c #BFB6B5",
"B 	c #BCB3B1",
"C 	c #B2A2A3",
"D 	c #9B6065",
"E 	c #A52A38",
"F 	c #BF2C36",
"G 	c #C62A33",
"H 	c #A62735",
"I 	c #522138",
"J 	c #665C60",
"K 	c #D0CCC4",
"L 	c #C6BCBD",
"M 	c #AFA5A6",
"N 	c #8E8089",
"O 	c #9C8A89",
"P 	c #C29592",
"Q 	c #B29F9C",
"R 	c #893A47",
"S 	c #722337",
"T 	c #64263D",
"U 	c #685C63",
"V 	c #CCC7C0",
"W 	c #CBC6BF",
"X 	c #D0CBC3",
"Y 	c #B57E7D",
"Z 	c #81283C",
"` 	c #AFA7A5",
" .	c #AB5A5E",
"..	c #AD212A",
"+.	c #B52128",
"@.	c #79696A",
"#.	c #BF9E9A",
"$.	c #6E2740",
"%.	c #461F3B",
"&.	c #C92226",
"*.	c #A22330",
"=.	c #812333",
"-.	c #411D2F",
";.	c #8B444E",
">.	c #BC252F",
",.	c #872334",
"'.	c #482138",
").	c #31192D",
"!.	c #BFBAB3",
"~.	c #AE6264",
"{.	c #642945",
"].	c #3E1F35",
"^.	c #30172A",
"/.	c #36232E",
"(.	c #C8807D",
"_.	c #B72A36",
":.	c #74293D",
"<.	c #45213A",
"[.	c #2E1626",
"}.	c #B9B4AE",
"|.	c #B7ACA8",
"1.	c #7F3549",
"2.	c #60263C",
"3.	c #442039",
"4.	c #402838",
"5.	c #63595B",
"6.	c #C8C3BC",
"7.	c #CEC8C2",
"8.	c #D5CCCA",
"9.	c #C3B6BC",
"0.	c #A98E8E",
"a.	c #A06D74",
"b.	c #8F4453",
"c.	c #88424E",
"d.	c #7B2B40",
"e.	c #6B5972",
"f.	c #AEA8A3",
"g.	c #72686A",
"h.	c #7F7676",
"i.	c #A49D99",
"j.	c #C4BEB8",
"k.	c #CEBEC1",
"l.	c #D9C6D2",
"m.	c #B49BB7",
"n.	c #DCCCD0",
"o.	c #D1BFCE",
"p.	c #835579",
"q.	c #7E2C47",
"r.	c #5F2B54",
"s.	c #412859",
"t.	c #C1BCB7",
"u.	c #CFCAC3",
"v.	c #BBB5AF",
"w.	c #A19894",
"x.	c #8C7574",
"y.	c #AEA49F",
"z.	c #D3CBC7",
"A.	c #D1C2C6",
"B.	c #AB99AD",
"C.	c #938BA2",
"D.	c #9791A1",
"E.	c #ACA6B0",
"F.	c #CAC5C0",
"G.	c #C2AEA8",
"H.	c #A88B89",
"I.	c #A69C98",
"J.	c #7E6E6C",
"K.	c #AB8B89",
"L.	c #B08B86",
"M.	c #A28C88",
"N.	c #948D89",
"O.	c #C6C1BA",
"              . + @       # $                                                                     ",
"            % & * = - ;   > ,                                                                     ",
"            ' ) ! ~ { ] ^ / ( _                                                                   ",
"            : < [ } | 1 2 3 4 5                                                                   ",
"            6 7 8 9 0 a b c d e                                                                   ",
"          f g h i j k l m n o                                                                     ",
"        p q r s t u v w x y               z z z z z   z z                               z z       ",
"      A B C D E F G H I J K             z z           z z                               z z       ",
"    L M N O P Q R S T U V               z z           z z z z     z z z z     z z   z   z z z z   ",
"      W X Y Z `  ...+.@.                z z z z z     z z               z z   z z z z   z z       ",
"          #.$.%.&.*.=.-.;                 z z z z z   z z         z z z z z   z z       z z       ",
"            W ;.>.,.'.).!.                      z z   z z       z z     z z   z z       z z       ",
"              ~.{.].^./.o                       z z   z z       z z     z z   z z       z z       ",
"              (._.:.<.[.}.              z z z z z       z z z     z z z z z   z z         z z z   ",
"              |.1.2.3.4.5.6.                                                                      ",
"      7.8.9.0.a.b.c.d.e.f.g.h.i.j.                                                                ",
"      k.l.m.n.o.p.q.r.s.t.  u.v.w.x.y.                                                            ",
"          z.A.B.C.D.E.F.      G.H.I.J.                                                            ",
"                          u.K.L.M.N.O.                                                            "};
