/* XPM */
static char * start_linux_xpm[] = {
"49 19 123 2",
"  	c #D4D0C8",
". 	c #AAA7A0",
"+ 	c #403F3C",
"@ 	c #383735",
"# 	c #98958F",
"$ 	c #CBC7C0",
"% 	c #1A1918",
"& 	c #000000",
"* 	c #080809",
"= 	c #262627",
"- 	c #A7A39D",
"; 	c #BFBBB4",
"> 	c #787877",
", 	c #2E2E2E",
"' 	c #939393",
") 	c #5C5C5B",
"! 	c #797772",
"~ 	c #8C8985",
"{ 	c #AE9E6D",
"] 	c #9B9787",
"^ 	c #959594",
"/ 	c #6A6864",
"( 	c #C0BDB5",
"_ 	c #C29640",
": 	c #F0CE27",
"< 	c #EFD12C",
"[ 	c #987C42",
"} 	c #5D5B57",
"| 	c #C3BFB8",
"1 	c #94836E",
"2 	c #C79C23",
"3 	c #C8A97C",
"4 	c #AAA6A0",
"5 	c #3B3B3C",
"6 	c #C2BEB7",
"7 	c #D3CFC7",
"8 	c #93918D",
"9 	c #EAEAE8",
"0 	c #D8D8D6",
"a 	c #F3F3F1",
"b 	c #F9F9F7",
"c 	c #4E4E4E",
"d 	c #686662",
"e 	c #D1CDC6",
"f 	c #9A9791",
"g 	c #B0B0AF",
"h 	c #FCFCFA",
"i 	c #F9F9F8",
"j 	c #FAFAF8",
"k 	c #ECECEA",
"l 	c #999998",
"m 	c #020203",
"n 	c #898681",
"o 	c #42413F",
"p 	c #E8E8E6",
"q 	c #FDFDFB",
"r 	c #E9E9E7",
"s 	c #3D3D3E",
"t 	c #0E0E0F",
"u 	c #B1AEA7",
"v 	c #979795",
"w 	c #8E8E8D",
"x 	c #181819",
"y 	c #9A9792",
"z 	c #656360",
"A 	c #C4C4C3",
"B 	c #A4A4A3",
"C 	c #19191A",
"D 	c #817E79",
"E 	c #D4D0C7",
"F 	c #B88E28",
"G 	c #C0BAB2",
"H 	c #F8F2E9",
"I 	c #988D75",
"J 	c #1A1A1A",
"K 	c #959085",
"L 	c #D7C1A1",
"M 	c #E2B561",
"N 	c #F3BC04",
"O 	c #CC9D02",
"P 	c #ABABAA",
"Q 	c #FBFBF9",
"R 	c #DECCB3",
"S 	c #B2850D",
"T 	c #765605",
"U 	c #DEB14C",
"V 	c #DDBA84",
"W 	c #F5BE04",
"X 	c #F4BE04",
"Y 	c #8C6D01",
"Z 	c #D3D3D1",
"` 	c #BDA788",
" .	c #EDB818",
"..	c #ECB718",
"+.	c #F4C01B",
"@.	c #E0C089",
"#.	c #DCB574",
"$.	c #E8B63C",
"%.	c #DFDCD8",
"&.	c #9C9C9B",
"*.	c #966E06",
"=.	c #F4BF1A",
"-.	c #E5AF14",
";.	c #CFA765",
">.	c #D3CEC5",
",.	c #CBB498",
"'.	c #D2A55B",
").	c #DAA402",
"!.	c #ECB503",
"~.	c #E4AB02",
"{.	c #806F5A",
"].	c #5F5D59",
"^.	c #865E0A",
"/.	c #DDA40F",
"(.	c #C49132",
"_.	c #C4B7A7",
":.	c #D0CBC2",
"<.	c #C0B2A0",
"[.	c #B4A18C",
"}.	c #D0CCC3",
"|.	c #C1BCB3",
"1.	c #A69686",
"2.	c #C8C1B7",
"                                                                                                  ",
"              . + @ #                                                                             ",
"            $ % & * = -                                                                           ",
"            ; > , ' ) !                                                                           ",
"            ; ~ { ] ^ /                                                                           ",
"            ( _ : < [ }                                                                           ",
"            | 1 2 3 4 5 6                 & & & & &   & &                               & &       ",
"          7 8 9 0 a b c d e             & &           & &                               & &       ",
"          f g h i j k l m n             & &           & & & &     & & & &     & &   &   & & & &   ",
"        7 o p q q q h r s t |           & & & & &     & &               & &   & & & &   & &       ",
"        u v q j q q q q w x y             & & & & &   & &         & & & & &   & &       & &       ",
"        z A q b q q q q B C D                   & &   & &       & &     & &   & &       & &       ",
"      E F G q b q q q H I J K                   & &   & &       & &     & &   & &       & &       ",
"    L M N O P Q q q h R S T U           & & & & &       & & &     & & & & &   & &         & & &   ",
"    V W W X Y Z q q h `  ...+.@.E                                                                 ",
"    #.W W W $.%.h k &.*.+.=.-.;.>.                                                                ",
"    ,.'.).!.~.{.n D ].^./.(._.                                                                    ",
"        :.<.[.}.      |.1.2.                                                                      ",
"                                                                                                  "};
