/* XPM */
static char * closeI_xpm[] = {
"24 48 4 1",
" 	c #272C36",
".	c #8B91A5",
"+	c #282B30",
"@	c #7B8092",
"                        ",
"                        ",
"                        ",
"                        ",
"                        ",
" ................       ",
" ................       ",
" ................       ",
" ................       ",
" ................       ",
" ................       ",
"                        ",
"                        ",
"                        ",
"                        ",
"                        ",
"                        ",
"                        ",
"                        ",
"                        ",
"                        ",
"                        ",
"                        ",
"++++++++++++++++++++++++",
"++++++++++++++++++++++++",
"++++++++++++++++++++++++",
"++++++++++++++++++++++++",
"++++++++++++++++++++++++",
"++++++++++++++++++++++++",
"++++++++++++++++++++++++",
"+@@@@@@@@@@@@@@@@+++++++",
"+@@@@@@@@@@@@@@@@+++++++",
"+@@@@@@@@@@@@@@@@+++++++",
"+@@@@@@@@@@@@@@@@+++++++",
"+@@@@@@@@@@@@@@@@+++++++",
"+@@@@@@@@@@@@@@@@+++++++",
"++++++++++++++++++++++++",
"++++++++++++++++++++++++",
"++++++++++++++++++++++++",
"++++++++++++++++++++++++",
"++++++++++++++++++++++++",
"++++++++++++++++++++++++",
"++++++++++++++++++++++++",
"++++++++++++++++++++++++",
"++++++++++++++++++++++++",
"++++++++++++++++++++++++",
"++++++++++++++++++++++++",
"++++++++++++++++++++++++"};
