/* XPM */
static char * frameAT_xpm[] = {
"1 18 2 1",
" 	c None",
".	c #272C36",
" ",
" ",
" ",
" ",
" ",
" ",
" ",
" ",
".",
".",
".",
".",
".",
".",
".",
".",
".",
"."};
