/* XPM */
static char * frameIB_xpm[] = {
"1 18 2 1",
" 	c None",
".	c #282B30",
".",
".",
".",
".",
".",
".",
".",
".",
".",
".",
" ",
" ",
" ",
" ",
" ",
" ",
" ",
" "};
