/* XPM */
static char * frameIBL_xpm[] = {
"18 18 2 1",
" 	c None",
".	c #282B30",
"      ............",
"      ............",
"      ............",
"      ............",
"      ............",
"      ............",
"      ............",
"      ............",
"      ............",
"      ............",
"                  ",
"                  ",
"                  ",
"                  ",
"                  ",
"                  ",
"                  ",
"                  "};
