/* XPM */
static char * maximizeA_xpm[] = {
"24 48 2 1",
" 	c #272C36",
".	c #8BA59B",
"                        ",
"                        ",
"                        ",
"                        ",
"                        ",
"  ................      ",
"  ................      ",
"  ................      ",
"  ................      ",
"  ................      ",
"  ................      ",
"                        ",
"                        ",
"                        ",
"                        ",
"                        ",
"                        ",
"                        ",
"                        ",
"                        ",
"                        ",
"                        ",
"                        ",
"                        ",
"                        ",
"                        ",
"                        ",
"                        ",
"                        ",
"  ................      ",
"  ................      ",
"  ................      ",
"  ................      ",
"  ................      ",
"  ................      ",
"                        ",
"                        ",
"                        ",
"                        ",
"                        ",
"                        ",
"                        ",
"                        ",
"                        ",
"                        ",
"                        ",
"                        ",
"                        "};
