/* XPM */
static char * maximizeI_xpm[] = {
"24 48 4 1",
" 	c #272C36",
".	c #8BA59B",
"+	c #282B30",
"@	c #7B998E",
"                        ",
"                        ",
"                        ",
"                        ",
"                        ",
"  ................      ",
"  ................      ",
"  ................      ",
"  ................      ",
"  ................      ",
"  ................      ",
"                        ",
"                        ",
"                        ",
"                        ",
"                        ",
"                        ",
"                        ",
"                        ",
"                        ",
"                        ",
"                        ",
"                        ",
"++++++++++++++++++++++++",
"++++++++++++++++++++++++",
"++++++++++++++++++++++++",
"++++++++++++++++++++++++",
"++++++++++++++++++++++++",
"++++++++++++++++++++++++",
"++++++++++++++++++++++++",
"++@@@@@@@@@@@@@@@@++++++",
"++@@@@@@@@@@@@@@@@++++++",
"++@@@@@@@@@@@@@@@@++++++",
"++@@@@@@@@@@@@@@@@++++++",
"++@@@@@@@@@@@@@@@@++++++",
"++@@@@@@@@@@@@@@@@++++++",
"++++++++++++++++++++++++",
"++++++++++++++++++++++++",
"++++++++++++++++++++++++",
"++++++++++++++++++++++++",
"++++++++++++++++++++++++",
"++++++++++++++++++++++++",
"++++++++++++++++++++++++",
"++++++++++++++++++++++++",
"++++++++++++++++++++++++",
"++++++++++++++++++++++++",
"++++++++++++++++++++++++",
"++++++++++++++++++++++++"};
