/* XPM */
static char * minimizeA_xpm[] = {
"24 48 2 1",
" 	c #272C36",
".	c #91AB79",
"                        ",
"                        ",
"                        ",
"                        ",
"                        ",
"   ................     ",
"   ................     ",
"   ................     ",
"   ................     ",
"   ................     ",
"   ................     ",
"                        ",
"                        ",
"                        ",
"                        ",
"                        ",
"                        ",
"                        ",
"                        ",
"                        ",
"                        ",
"                        ",
"                        ",
"                        ",
"                        ",
"                        ",
"                        ",
"                        ",
"                        ",
"   ................     ",
"   ................     ",
"   ................     ",
"   ................     ",
"   ................     ",
"   ................     ",
"                        ",
"                        ",
"                        ",
"                        ",
"                        ",
"                        ",
"                        ",
"                        ",
"                        ",
"                        ",
"                        ",
"                        ",
"                        "};
