/* XPM */
static char * 1_xpm[] = {
"1 13 2 1",
" 	c #181b20",
"D	c #282b30",
" ",
" ",
" ",
" ",
" ",
" ",
" ",
" ",
" ",
" ",
" ",
" ",
"D"};
