/* XPM */
static char * menuButtonA_xpm[] = {
"23 46 3 1",
" 	c #C8C8EE",
".	c #282B30",
"+	c #B8B8DD",
"                       ",
"                       ",
"                       ",
"                       ",
"                       ",
"                       ",
"                       ",
"                       ",
"                       ",
"                       ",
"           ..          ",
"          ...          ",
"          ..           ",
"                       ",
"                       ",
"                       ",
"                       ",
"                       ",
"                       ",
"                       ",
"                       ",
"                       ",
"                       ",
".++.+...+...+.+.+.+.++.",
"..+.+.+.++.++.+.+.+..+.",
".+..+.+.++.++...+.+.+..",
".+..+.+.++.++.+.+.+.+..",
".++.+...++.++.+.+.+.++.",
"+++++++++++++++++++++++",
"+++++++++++++++++++++++",
".+.+...+..++...+.++++++",
".+.+.+++.+.+.+++.++++++",
"...+..++..++..++.++++++",
".+.+.+++.+.+.++++++++++",
".+.+...+.+.+...+.++++++",
"+++++++++++++++++++++++",
"+++++++++++++++++++++++",
"+++++++++++++++++++++++",
"+++++++++++++++++++++++",
"+++++++++++++++++++++++",
"+++++++++++++++++++++++",
"+++++++++++++++++++++++",
"+++++++++++++++++++++++",
"+++++++++++++++++++++++",
"+++++++++++++++++++++++",
"+++++++++++++++++++++++"};
