/* XPM */
static char * shutdown_16x16_xpm[] = {
"16 16 2 1",
" 	c None",
".	c #E9B8D4",
"       ..       ",
"       ..       ",
"    .  ..  .    ",
"   ..  ..  ..   ",
"  ...  ..  ...  ",
"  ...  ..  ...  ",
" ...   ..   ... ",
" ...   ..   ... ",
" ...   ..   ... ",
" ...        ... ",
"  ...      ...  ",
"  ....    ....  ",
"   ..........   ",
"    ........    ",
"      ....      ",
"                "};
