/* XPM */
static char * minimizeA_xpm[] = {
"20 38 4 1",
" 	c #000000",
".	c #BBBBBB",
"+	c #5F5FA6",
"@	c #4C4C4C",
" .................+ ",
" ................++ ",
" ................++ ",
" ................++ ",
" ................++ ",
" ................++ ",
" ................++ ",
" .....@@@@@@@....++ ",
" ......@@@@@.....++ ",
" .......@@@......++ ",
" ........@.......++ ",
" ................++ ",
" ................++ ",
" ................++ ",
" ................++ ",
" ................++ ",
" .+++++++++++++++++ ",
" ++++++++++++++++++ ",
"                    ",
" ++++++++++++++++++ ",
" +++++++++++++++++. ",
" ++................ ",
" ++................ ",
" ++................ ",
" ++................ ",
" ++................ ",
" ++...@@@@@@@...... ",
" ++....@@@@@....... ",
" ++.....@@@........ ",
" ++......@......... ",
" ++................ ",
" ++................ ",
" ++................ ",
" ++................ ",
" ++................ ",
" ++................ ",
" +................. ",
"                    "};
