/* XPM */
static char * closeA_xpm[] = {
"18 38 6 1",
" 	c #000080",
".	c #FFFFFF",
"+	c #000000",
"@	c #C0C0C0",
"#	c #808080",
"$	c #D4D0C8",
"                  ",
"                  ",
" ...............+ ",
" .@@@@@@@@@@@@@#+ ",
" .@@@@@@@@@@@@@#+ ",
" .@@@++@@@@++@@#+ ",
" .@@@@++@@++@@@#+ ",
" .@@@@@++++@@@@#+ ",
" .@@@@@@++@@@@@#+ ",
" .@@@@@++++@@@@#+ ",
" .@@@@++@@++@@@#+ ",
" .@@@++@@@@++@@#+ ",
" .@@@@@@@@@@@@@#+ ",
" .@@@@@@@@@@@@@#+ ",
" .##############+ ",
" ++++++++++++++++ ",
"                  ",
"                  ",
"@@@@@@@@@@@@@@@@@@",
"                  ",
"                  ",
" ++++++++++++++++ ",
" +##############. ",
" +#@@@@@@@@@@@@@. ",
" +#@@@@@@@@@@@@@. ",
" +#@@++@@@@++@@@. ",
" +#@@@++@@++@@@@. ",
" +#@@@@++++@@@@@. ",
" +#@@@@@++@@@@@@. ",
" +#@@@@++++@@@@@. ",
" +#@@@++@@++@@@@. ",
" +#@@++@@@@++@@@. ",
" +#@@@@@@@@@@@@@. ",
" +#@@@@@@@@@@@@@. ",
" +............... ",
"                  ",
"                  ",
"$$$$$$$$$$$$$$$$$$"};
