/* XPM */
static char * closeI_xpm[] = {
"18 38 4 1",
" 	c #808080",
".	c #FFFFFF",
"+	c #000000",
"@	c #C0C0C0",
"                  ",
"                  ",
" ...............+ ",
" .@@@@@@@@@@@@@ + ",
" .@@@@@@@@@@@@@ + ",
" .@@@++@@@@++@@ + ",
" .@@@@++@@++@@@ + ",
" .@@@@@++++@@@@ + ",
" .@@@@@@++@@@@@ + ",
" .@@@@@++++@@@@ + ",
" .@@@@++@@++@@@ + ",
" .@@@++@@@@++@@ + ",
" .@@@@@@@@@@@@@ + ",
" .@@@@@@@@@@@@@ + ",
" .              + ",
" ++++++++++++++++ ",
"                  ",
"                  ",
"                  ",
"                  ",
"                  ",
" ++++++++++++++++ ",
" +              . ",
" +              . ",
" +              . ",
" +   ++    ++   . ",
" +    ++  ++    . ",
" +     ++++     . ",
" +      ++      . ",
" +     ++++     . ",
" +    ++  ++    . ",
" +   ++    ++   . ",
" +              . ",
" +              . ",
" +............... ",
"                  ",
"                  ",
"                  "};
