/* XPM */
static char * frameAT_xpm[] = {
"1 4 2 1",
" 	c #D4D0C8",
".	c #FFFFFF",
" ",
" ",
".",
" "};
