/* XPM */
static char * frameABL_xpm[] = {
"4 4 4 1",
" 	c #D4D0C8",
".	c #FFFFFF",
"+	c #808080",
"@	c #404040",
" .  ",
" .  ",
" +++",
"@@@@"};
