/* XPM */
static char * frameATR_xpm[] = {
"4 4 4 1",
" 	c #D4D0C8",
".	c #404040",
"+	c #FFFFFF",
"@	c #808080",
"   .",
"++@.",
"  @.",
"  @."};
