/* XPM */
static char * maximizeA_xpm[] = {
"18 38 5 1",
" 	c #000080",
".	c #000000",
"+	c #FFFFFF",
"@	c #C0C0C0",
"#	c #808080",
"                  ",
"                  ",
".+++++++++++++++. ",
".+@@@@@@@@@@@@@#. ",
".+@@.........@@#. ",
".+@@.........@@#. ",
".+@@.@@@@@@@.@@#. ",
".+@@.@@@@@@@.@@#. ",
".+@@.@@@@@@@.@@#. ",
".+@@.@@@@@@@.@@#. ",
".+@@.@@@@@@@.@@#. ",
".+@@.@@@@@@@.@@#. ",
".+@@.........@@#. ",
".+@@@@@@@@@@@@@#. ",
".+##############. ",
"................. ",
"                  ",
"                  ",
"@@@@@@@@@@@@@@@@@@",
"                  ",
"                  ",
"................. ",
"..##############+ ",
"..#@@@@@@@@@@@@@+ ",
"..#@.........@@@+ ",
"..#@.........@@@+ ",
"..#@.@@@@@@@.@@@+ ",
"..#@.@@@@@@@.@@@+ ",
"..#@.@@@@@@@.@@@+ ",
"..#@.@@@@@@@.@@@+ ",
"..#@.@@@@@@@.@@@+ ",
"..#@.@@@@@@@.@@@+ ",
"..#@.........@@@+ ",
"..#@@@@@@@@@@@@@+ ",
"..+++++++++++++++ ",
"                  ",
"                  ",
"@@@@@@@@@@@@@@@@@@"};
