/* XPM */
static char * maximizeI_xpm[] = {
"18 38 5 1",
" 	c #808080",
".	c #404040",
"+	c #FFFFFF",
"@	c #C0C0C0",
"#	c #000000",
"                  ",
"                  ",
".+++++++++++++++. ",
".+@@@@@@@@@@@@@ . ",
".+@@#########@@ . ",
".+@@#########@@ . ",
".+@@#@@@@@@@#@@ . ",
".+@@#@@@@@@@#@@ . ",
".+@@#@@@@@@@#@@ . ",
".+@@#@@@@@@@#@@ . ",
".+@@#@@@@@@@#@@ . ",
".+@@#@@@@@@@#@@ . ",
".+@@#########@@ . ",
".+@@@@@@@@@@@@@ . ",
".+              . ",
"................. ",
"                  ",
"                  ",
"                  ",
"                  ",
"                  ",
"................. ",
"..              + ",
"..              + ",
"..  #########   + ",
"..  #########   + ",
"..  #       #   + ",
"..  #       #   + ",
"..  #       #   + ",
"..  #       #   + ",
"..  #       #   + ",
"..  #       #   + ",
"..  #########   + ",
"..              + ",
"..+++++++++++++++ ",
"                  ",
"                  ",
"                  "};
