/* XPM */
static char * minimizeA_xpm[] = {
"20 38 5 1",
" 	c #000080",
".	c #FFFFFF",
"+	c #C0C0C0",
"@	c #808080",
"#	c #000000",
"                    ",
"                    ",
"     ...............",
"     .+++++++++++++@",
"     .+++++++++++++@",
"     .+++++++++++++@",
"     .+++++++++++++@",
"     .+++++++++++++@",
"     .+++++++++++++@",
"     .+++++++++++++@",
"     .+++++++++++++@",
"     .+++######++++@",
"     .+++######++++@",
"     .+++++++++++++@",
"     .@@@@@@@@@@@@@@",
"     ###############",
"                    ",
"                    ",
"++++++++++++++++++++",
"                    ",
"                    ",
"     ###############",
"     @@@@@@@@@@@@@@.",
"     @+++++++++++++.",
"     @+++++++++++++.",
"     @+++++++++++++.",
"     @+++++++++++++.",
"     @+++++++++++++.",
"     @+++++++++++++.",
"     @+++++++++++++.",
"     @+++++++++++++.",
"     @+++######++++.",
"     @+++######++++.",
"     @+++++++++++++.",
"     ...............",
"                    ",
"                    ",
"++++++++++++++++++++"};
