/* XPM */
static char * about_32x32_xpm[] = {
"32 32 4 1",
" 	c None",
".	c #414141",
"+	c #FFFFFF",
"@	c #CECECE",
"            ........            ",
"            ........            ",
"        ....++++++++....        ",
"        ....++++++++....        ",
"      ..++++@@@@@@@@++++..      ",
"      ..++++@@@@@@@@++++..      ",
"    ..++@@@@@@@@@@@@@@@@++..    ",
"    ..++@@@@@@@@@@@@@@@@++..    ",
"  ..++@@@@@@@@....@@@@@@@@++..  ",
"  ..++@@@@@@@@....@@@@@@@@++..  ",
"  ..++@@@@@@@@@@@@@@@@@@@@++..  ",
"  ..++@@@@@@@@@@@@@@@@@@@@++..  ",
"..++@@@@@@@@......@@@@@@@@@@++..",
"..++@@@@@@@@......@@@@@@@@@@++..",
"..++@@@@@@@@@@....@@@@@@@@@@++..",
"..++@@@@@@@@@@....@@@@@@@@@@++..",
"..++@@@@@@@@@@....@@@@@@@@@@++..",
"..++@@@@@@@@@@....@@@@@@@@@@++..",
"..++@@@@@@@@@@....@@@@@@@@@@++..",
"..++@@@@@@@@@@....@@@@@@@@@@++..",
"  ..++@@@@@@@@....@@@@@@@@++..  ",
"  ..++@@@@@@@@....@@@@@@@@++..  ",
"  ..++@@@@@@........@@@@@@++..  ",
"  ..++@@@@@@........@@@@@@++..  ",
"    ..++@@@@@@@@@@@@@@@@++..    ",
"    ..++@@@@@@@@@@@@@@@@++..    ",
"      ..++++@@@@@@@@++++..      ",
"      ..++++@@@@@@@@++++..      ",
"        ....++++++++....        ",
"        ....++++++++....        ",
"            ........            ",
"            ........            "};
