/* XPM */
static char * pdf_32x32_xpm[] = {
"32 32 2 1",
" 	c None",
".	c #ECECEC",
"           ...                  ",
"          .. ..                 ",
"          ..  .                 ",
"          ..  .                 ",
"          ..  .                 ",
"          ..  .                 ",
"           .  .                 ",
"           .. .                 ",
"            ...                 ",
"            ...                 ",
"            ...                 ",
"           .....                ",
"           .. ..                ",
"           ..  ..               ",
"          ..    ..              ",
"          ..     ...            ",
"          ..      ...           ",
"         ..        ............ ",
"         ..     .........     ..",
"        ...  .....     ....    .",
"        ..  ...          ...... ",
"        .....                   ",
"       ...                      ",
"      ...                       ",
"     ...                        ",
"   .. ..                        ",
"  ..  .                         ",
" ..  ..                         ",
"..  ..                          ",
".. ..                           ",
"....                            ",
"...                             "};
