/* XPM */
static char * themes_16x16_xpm[] = {
"16 16 5 1",
" 	c None",
".	c #E1B9D5",
"+	c #B8DAD9",
"@	c #D5E7C2",
"#	c #E7D8A4",
"                ",
".....  +        ",
"..... +++       ",
".....+++++      ",
"....++++++ @    ",
"...++++++@@@@   ",
"...+++++@@@@@@  ",
"...++++@@@@@@@@ ",
"..++++@@@@@@@   ",
"..++@@@@@@@@    ",
".++#############",
".+@#############",
".+@#############",
"   #############",
"                ",
"                "};
