/* XPM */
static char * themes_32x32_xpm[] = {
"32 32 5 1",
" 	c None",
".	c #E1B9D5",
"+	c #B8DAD9",
"@	c #D5E7C2",
"#	c #E7D8A4",
"                                ",
"                                ",
"..........    ++                ",
"..........   ++++               ",
"..........  ++++++              ",
".......... ++++++++             ",
"..........++++++++++            ",
"..........+++++++++++           ",
".........+++++++++++  @@        ",
".........+++++++++++ @@@@       ",
"........+++++++++++@@@@@@@      ",
"........++++++++++@@@@@@@@@     ",
".......++++++++++@@@@@@@@@@@    ",
".......+++++++++@@@@@@@@@@@@@   ",
".......++++++++@@@@@@@@@@@@@@   ",
"......++++++++@@@@@@@@@@@@@@    ",
"......+++++++@@@@@@@@@@@@@@     ",
".....+++++++@@@@@@@@@@@@@@      ",
".....++++++@@@@@@@@@@@@@@       ",
"....++++++@@@@@@@@@@@@@@        ",
"....++##########################",
"....++##########################",
"...+++##########################",
"...++@##########################",
"..++@@##########################",
"..++@@##########################",
"     @##########################",
"      ##########################",
"                                ",
"                                ",
"                                ",
"                                "};
